<svg width="17" height="13" viewBox="0 0 17 13" fill="none" xmlns="http://www.w3.org/2000/svg">
<path d="M15.7857 0H1.21429C0.892237 0 0.583379 0.136964 0.355656 0.380761C0.127933 0.624558 0 0.955218 0 1.3V11.7C0 12.0448 0.127933 12.3754 0.355656 12.6192C0.583379 12.863 0.892237 13 1.21429 13H15.7857C16.1078 13 16.4166 12.863 16.6443 12.6192C16.8721 12.3754 17 12.0448 17 11.7V1.3C17 0.955218 16.8721 0.624558 16.6443 0.380761C16.4166 0.136964 16.1078 0 15.7857 0ZM14.45 1.3L8.5 5.707L2.55 1.3H14.45ZM1.21429 11.7V1.8915L8.15393 7.033C8.25556 7.10848 8.37631 7.14893 8.5 7.14893C8.62369 7.14893 8.74444 7.10848 8.84607 7.033L15.7857 1.8915V11.7H1.21429Z" fill="#7E7E7E"/>
</svg>
