<svg width="12" height="16" viewBox="0 0 12 16" fill="none" xmlns="http://www.w3.org/2000/svg">
<path d="M0.857143 13.7143C0.857143 14.6571 1.62857 15.4286 2.57143 15.4286H9.42857C10.3714 15.4286 11.1429 14.6571 11.1429 13.7143V5.14286C11.1429 4.2 10.3714 3.42857 9.42857 3.42857H2.57143C1.62857 3.42857 0.857143 4.2 0.857143 5.14286V13.7143ZM11.1429 0.857143H9L8.39143 0.248571C8.23714 0.0942857 8.01429 0 7.79143 0H4.20857C3.98571 0 3.76286 0.0942857 3.60857 0.248571L3 0.857143H0.857143C0.385714 0.857143 0 1.24286 0 1.71429C0 2.18571 0.385714 2.57143 0.857143 2.57143H11.1429C11.6143 2.57143 12 2.18571 12 1.71429C12 1.24286 11.6143 0.857143 11.1429 0.857143Z" fill="#546EF6"/>
</svg>
