<svg width="13" height="18" viewBox="0 0 13 18" fill="none" xmlns="http://www.w3.org/2000/svg">
<path d="M6.5 0.78C3.34208 0.78 0.78 3.17177 0.78 6.11756C0.78 9.5071 4.59333 14.8786 5.99354 16.7338C6.05166 16.8122 6.12784 16.8759 6.21586 16.9198C6.30388 16.9638 6.40124 16.9867 6.5 16.9867C6.59876 16.9867 6.69612 16.9638 6.78414 16.9198C6.87216 16.8759 6.94834 16.8122 7.00646 16.7338C8.40667 14.8793 12.22 9.50983 12.22 6.11756C12.22 3.17177 9.65792 0.78 6.5 0.78Z" stroke="#7E7E7E" stroke-width="1.5" stroke-linecap="round" stroke-linejoin="round"/>
<path d="M6.5 8.06C7.36156 8.06 8.06 7.36156 8.06 6.5C8.06 5.63844 7.36156 4.94 6.5 4.94C5.63844 4.94 4.94 5.63844 4.94 6.5C4.94 7.36156 5.63844 8.06 6.5 8.06Z" stroke="#7E7E7E" stroke-width="1.5" stroke-linecap="round" stroke-linejoin="round"/>
</svg>
