<svg width="20" height="15" viewBox="0 0 20 15" fill="none" xmlns="http://www.w3.org/2000/svg">
<path d="M2.14286 0C0.967857 0 0 0.967857 0 2.14286V12.1429C0 13.3179 0.967857 14.2857 2.14286 14.2857H17.8571C19.0321 14.2857 20 13.3179 20 12.1429V2.14286C20 0.967857 19.0321 0 17.8571 0H2.14286ZM2.14286 1.42857H17.8571C18.2614 1.42857 18.5714 1.73857 18.5714 2.14286V12.1429C18.5714 12.5471 18.2614 12.8571 17.8571 12.8571H2.14286C1.73857 12.8571 1.42857 12.5471 1.42857 12.1429V2.14286C1.42857 1.73857 1.73857 1.42857 2.14286 1.42857ZM6.42857 2.85714C4.85714 2.85714 3.57143 4.14286 3.57143 5.71429C3.57143 6.50929 3.91214 7.22643 4.44214 7.74571C3.95595 8.07381 3.55735 8.51581 3.28109 9.03322C3.00484 9.55063 2.85929 10.1277 2.85714 10.7143H4.28571C4.28571 9.52286 5.23714 8.57143 6.42857 8.57143C7.62 8.57143 8.57143 9.52286 8.57143 10.7143H10C9.99785 10.1277 9.85231 9.55063 9.57605 9.03322C9.29979 8.51581 8.9012 8.07381 8.415 7.74571C8.945 7.22643 9.28571 6.51 9.28571 5.71429C9.28571 4.14286 8 2.85714 6.42857 2.85714ZM11.4286 3.57143V5H17.1429V3.57143H11.4286ZM6.42857 4.28571C7.22643 4.28571 7.85714 4.91643 7.85714 5.71429C7.85714 6.51214 7.22643 7.14286 6.42857 7.14286C5.63071 7.14286 5 6.51214 5 5.71429C5 4.91643 5.63071 4.28571 6.42857 4.28571ZM11.4286 6.42857V7.85714H17.1429V6.42857H11.4286ZM11.4286 9.28571V10.7143H15V9.28571H11.4286Z" fill="#7E7E7E"/>
</svg>
