<svg width="11" height="16" viewBox="0 0 11 16" fill="none" xmlns="http://www.w3.org/2000/svg">
<path d="M5.5 0C2.45929 0 0 2.45929 0 5.5C0 9.625 5.5 15.7143 5.5 15.7143C5.5 15.7143 11 9.625 11 5.5C11 2.45929 8.54071 0 5.5 0ZM5.5 7.46429C4.97904 7.46429 4.47942 7.25733 4.11104 6.88896C3.74267 6.52058 3.53571 6.02096 3.53571 5.5C3.53571 4.97904 3.74267 4.47942 4.11104 4.11104C4.47942 3.74267 4.97904 3.53571 5.5 3.53571C6.02096 3.53571 6.52058 3.74267 6.88896 4.11104C7.25733 4.47942 7.46429 4.97904 7.46429 5.5C7.46429 6.02096 7.25733 6.52058 6.88896 6.88896C6.52058 7.25733 6.02096 7.46429 5.5 7.46429Z" fill="#546EF6"/>
</svg>
