<svg width="18" height="18" viewBox="0 0 18 18" fill="none" xmlns="http://www.w3.org/2000/svg">
<path fill-rule="evenodd" clip-rule="evenodd" d="M2.31786 6.98945C4.15823 10.9959 7.42816 14.1709 11.4871 15.8925L11.4994 15.8976L12.2846 16.2471C12.7696 16.4633 13.3142 16.5061 13.827 16.3682C14.3398 16.2302 14.7895 15.92 15.1005 15.4896L16.4098 13.6778C16.4483 13.6244 16.4649 13.5583 16.4561 13.4931C16.4473 13.4279 16.4138 13.3686 16.3626 13.3273L14.0769 11.4826C14.05 11.4608 14.0189 11.4448 13.9855 11.4353C13.9522 11.4259 13.9173 11.4233 13.8829 11.4278C13.8485 11.4322 13.8154 11.4435 13.7855 11.461C13.7556 11.4786 13.7296 11.502 13.709 11.5299L12.819 12.7302C12.7142 12.8719 12.5639 12.9733 12.3934 13.0176C12.2229 13.0619 12.0423 13.0465 11.8817 12.9738C8.8408 11.5962 6.40449 9.15992 5.0269 6.11897C4.95425 5.95844 4.9388 5.77786 4.98312 5.60731C5.02744 5.43677 5.12885 5.28655 5.27047 5.1817L6.46981 4.29068C6.49768 4.27008 6.52109 4.24406 6.53864 4.21418C6.55619 4.18429 6.56752 4.15117 6.57193 4.1168C6.57635 4.08243 6.57377 4.04752 6.56434 4.01417C6.55492 3.98082 6.53884 3.94973 6.51709 3.92276L4.67337 1.63713C4.63212 1.58587 4.57278 1.5524 4.50757 1.54361C4.44237 1.53481 4.37628 1.55136 4.32292 1.58985L2.50079 2.90532C2.06751 3.21786 1.75581 3.67078 1.61867 4.18712C1.48153 4.70346 1.5274 5.25135 1.74851 5.73769L2.31786 6.98842V6.98945ZM10.8787 17.3087C6.46889 15.4362 2.9166 11.9854 0.917088 7.63177L0.915032 7.62971L0.34568 6.3759C-0.0228365 5.56549 -0.0994126 4.65248 0.128962 3.792C0.357336 2.93152 0.876575 2.17664 1.59846 1.65562L3.42059 0.340154C3.79378 0.0708125 4.25603 -0.0452114 4.71218 0.0159657C5.16833 0.0771428 5.58368 0.310865 5.87271 0.669022L7.71745 2.95568C7.86969 3.14434 7.98221 3.36183 8.04826 3.59508C8.11431 3.82833 8.13253 4.07252 8.10181 4.31299C8.07109 4.55346 7.99207 4.78524 7.86951 4.99439C7.74694 5.20355 7.58336 5.38576 7.38859 5.5301L6.70002 6.03984C7.86419 8.29704 9.70264 10.1355 11.9598 11.2997L12.4706 10.6111C12.6149 10.4165 12.7971 10.253 13.0062 10.1306C13.2152 10.0081 13.4469 9.92912 13.6872 9.89841C13.9276 9.86769 14.1717 9.88586 14.4048 9.95182C14.638 10.0178 14.8554 10.1302 15.044 10.2822L17.3307 12.127C17.6891 12.416 17.923 12.8316 17.9842 13.288C18.0454 13.7444 17.9292 14.2069 17.6595 14.5801L16.3502 16.393C15.832 17.1103 15.0826 17.6273 14.2281 17.8573C13.3736 18.0873 12.466 18.0163 11.6577 17.6561L10.8787 17.3087Z" fill="#7E7E7E"/>
</svg>
