<svg width="9" height="16" viewBox="0 0 9 16" fill="none" xmlns="http://www.w3.org/2000/svg">
<path fill-rule="evenodd" clip-rule="evenodd" d="M0.343598 8.6564C0.123592 8.43633 0 8.13789 0 7.82671C0 7.51552 0.123592 7.21708 0.343598 6.99701L6.98234 0.35827C7.09059 0.246184 7.22009 0.156781 7.36327 0.0952764C7.50644 0.0337721 7.66044 0.00139836 7.81626 4.43088e-05C7.97208 -0.00130975 8.12661 0.0283832 8.27084 0.0873901C8.41506 0.146397 8.54609 0.233536 8.65628 0.343724C8.76647 0.453911 8.8536 0.584939 8.91261 0.729163C8.97162 0.873388 9.00131 1.02792 8.99996 1.18374C8.9986 1.33956 8.96623 1.49356 8.90472 1.63673C8.84322 1.77991 8.75382 1.90941 8.64173 2.01766L2.83269 7.82671L8.64173 13.6358C8.8555 13.8571 8.97379 14.1535 8.97112 14.4612C8.96844 14.7689 8.84502 15.0633 8.62744 15.2808C8.40985 15.4984 8.11551 15.6219 7.80781 15.6245C7.50011 15.6272 7.20367 15.5089 6.98234 15.2951L0.343598 8.6564Z" fill="#272727"/>
</svg>
