<svg width="16" height="17" viewBox="0 0 16 17" fill="none" xmlns="http://www.w3.org/2000/svg">
<path d="M0.868572 4.49796C1.54776 3.14551 2.58969 2.00858 3.8779 1.21426C5.16612 0.41994 6.64985 -0.000476382 8.16327 4.05087e-07C10.3633 4.05087e-07 12.2114 0.80898 13.6245 2.12653L11.2841 4.46776C10.4376 3.65878 9.36163 3.24653 8.16327 3.24653C6.03674 3.24653 4.23674 4.68327 3.59592 6.61225C3.43265 7.10204 3.33959 7.62449 3.33959 8.16327C3.33959 8.70204 3.43265 9.22449 3.59592 9.71429C4.23755 11.6441 6.03674 13.08 8.16327 13.08C9.26123 13.08 10.1959 12.7902 10.9273 12.3004C11.3514 12.0212 11.7144 11.659 11.9945 11.2355C12.2745 10.8121 12.4658 10.3362 12.5567 9.83674H8.16327V6.67918H15.8514C15.9478 7.21306 16 7.7698 16 8.34857C16 10.8351 15.1102 12.9282 13.5657 14.3486C12.2155 15.5959 10.3673 16.3265 8.16327 16.3265C7.09113 16.327 6.02942 16.1161 5.03881 15.706C4.0482 15.2959 3.14812 14.6946 2.39001 13.9365C1.63189 13.1784 1.03061 12.2783 0.620518 11.2877C0.210428 10.2971 -0.000428458 9.2354 6.53644e-07 8.16327C6.53644e-07 6.84572 0.315103 5.6 0.868572 4.49796Z" fill="#EA4335"/>
</svg>
