<svg width="15" height="15" viewBox="0 0 15 15" fill="none" xmlns="http://www.w3.org/2000/svg">
<path d="M14.9014 13.1971C13.9492 11.526 12.4624 10.2239 10.6803 9.50044C11.5666 8.83578 12.2212 7.90913 12.5515 6.85176C12.8818 5.79438 12.871 4.65988 12.5207 3.60896C12.1704 2.55805 11.4983 1.64399 10.5996 0.996268C9.70098 0.348547 8.6213 0 7.51353 0C6.40577 0 5.32609 0.348547 4.42742 0.996268C3.52876 1.64399 2.85667 2.55805 2.50636 3.60896C2.15606 4.65988 2.14529 5.79438 2.47559 6.85176C2.80589 7.90913 3.46051 8.83578 4.34672 9.50044C2.56464 10.2239 1.07785 11.526 0.125693 13.1971C0.0666939 13.292 0.0273712 13.3978 0.0100627 13.5081C-0.00724572 13.6185 -0.0021867 13.7312 0.0249392 13.8396C0.052065 13.948 0.100704 14.0498 0.167964 14.139C0.235225 14.2282 0.319733 14.303 0.416466 14.3588C0.513199 14.4147 0.620182 14.4506 0.731054 14.4643C0.841926 14.478 0.954424 14.4693 1.06186 14.4387C1.1693 14.4081 1.26948 14.3561 1.35645 14.286C1.44342 14.2159 1.5154 14.129 1.56812 14.0305C2.82651 11.8554 5.04884 10.5581 7.51353 10.5581C9.97823 10.5581 12.2006 11.8561 13.4589 14.0305C13.5732 14.2142 13.7544 14.3463 13.9643 14.3988C14.1741 14.4514 14.3962 14.4202 14.5835 14.312C14.7709 14.2038 14.9087 14.0269 14.9681 13.8189C15.0274 13.6108 15.0035 13.3879 14.9014 13.1971ZM3.90226 5.2801C3.90226 4.56586 4.11405 3.86766 4.51087 3.27379C4.90768 2.67991 5.47168 2.21705 6.13156 1.94372C6.79143 1.67039 7.51754 1.59887 8.21806 1.73822C8.91858 1.87756 9.56205 2.2215 10.0671 2.72655C10.5721 3.23159 10.9161 3.87506 11.0554 4.57558C11.1948 5.2761 11.1232 6.00221 10.8499 6.66208C10.5766 7.32196 10.1137 7.88596 9.51985 8.28277C8.92598 8.67958 8.22778 8.89138 7.51353 8.89138C6.5561 8.89028 5.6382 8.50945 4.96119 7.83245C4.28419 7.15544 3.90336 6.23754 3.90226 5.2801Z" fill="#7E7E7E"/>
</svg>
